<svg width="137" height="78" viewBox="0 0 137 78" fill="none" xmlns="http://www.w3.org/2000/svg">
<path fill-rule="evenodd" clip-rule="evenodd" d="M0.84375 10.1014V67.9662C0.84375 73.3485 5.27656 77.7118 10.7447 77.7118H50.9419C53.5677 77.7118 56.0861 76.685 57.9429 74.8574L62.1337 70.7323C66.0003 66.9264 72.2692 66.9264 76.1358 70.7323L80.3266 74.8574C82.1834 76.685 84.7018 77.7118 87.3277 77.7118H126.983C132.451 77.7118 136.884 73.3485 136.884 67.9662V10.1014C136.884 4.71899 132.451 0.355713 126.983 0.355713H10.7447C5.27656 0.355713 0.84375 4.71899 0.84375 10.1014ZM53.959 38.7672C53.959 47.6063 46.6793 54.7719 37.6993 54.7719C28.7192 54.7719 21.4395 47.6063 21.4395 38.7672C21.4395 29.928 28.7192 22.7625 37.6993 22.7625C46.6793 22.7625 53.959 29.928 53.959 38.7672ZM99.4865 54.772C108.466 54.772 115.746 47.6064 115.746 38.7672C115.746 29.9281 108.466 22.7625 99.4865 22.7625C90.5065 22.7625 83.2267 29.9281 83.2267 38.7672C83.2267 47.6064 90.5065 54.772 99.4865 54.772Z" fill="white"/>
</svg>
